<svg width="137" height="42" xmlns="http://www.w3.org/2000/svg" fill="none">

 <g>
  <title>Layer 1</title>
  <path id="svg_1" fill="#999999" d="m66.3567,20.1715l-5.5891,0l-0.0303,-2.3477l5.0741,0c0.8381,0 1.5702,-0.1413 2.1962,-0.4241c0.6261,-0.2827 1.1108,-0.6866 1.4541,-1.2117c0.3534,-0.5351 0.5301,-1.1713 0.5301,-1.9084c0,-0.8078 -0.1565,-1.4642 -0.4695,-1.9691c-0.303,-0.5149 -0.7725,-0.8886 -1.4086,-1.1208c-0.6261,-0.2423 -1.4238,-0.3635 -2.3932,-0.3635l-4.3016,0l0,19.6601l-2.9232,0l0,-22.05325l7.2248,0c1.1309,0 2.1407,0.11612 3.0293,0.34836c0.8886,0.22215 1.6409,0.57557 2.2568,1.06026c0.6261,0.47463 1.1007,1.08043 1.4238,1.81753c0.3231,0.7372 0.4847,1.6207 0.4847,2.6507c0,0.9088 -0.2323,1.7317 -0.6968,2.4688c-0.4645,0.7271 -1.1107,1.3228 -1.9387,1.7873c-0.8179,0.4645 -1.7772,0.7624 -2.8778,0.8937l-1.0451,0.7118zm-0.1364,10.3148l-6.6038,0l1.651,-2.378l4.9528,0c0.929,0 1.7166,-0.1616 2.3629,-0.4847c0.6563,-0.3231 1.1562,-0.7775 1.4995,-1.3632c0.3433,-0.5958 0.515,-1.2975 0.515,-2.1053c0,-0.818 -0.1464,-1.5248 -0.4393,-2.1205c-0.2928,-0.5958 -0.7523,-1.0553 -1.3783,-1.3784c-0.6261,-0.3231 -1.4339,-0.4847 -2.4234,-0.4847l-4.1653,0l0.0303,-2.3477l5.695,0l0.6211,0.8482c1.0602,0.0909 1.9589,0.3938 2.696,0.9088c0.7371,0.5049 1.2976,1.1512 1.6813,1.9388c0.3938,0.7876 0.5907,1.656 0.5907,2.6052c0,1.3732 -0.3029,2.5345 -0.9088,3.4836c-0.5958,0.9391 -1.4389,1.6561 -2.5295,2.1508c-1.0905,0.4847 -2.3729,0.7271 -3.8472,0.7271zm10.4359,-8.0125l0,-0.3484c0,-1.1814 0.1717,-2.277 0.515,-3.2867c0.3433,-1.0199 0.8381,-1.9035 1.4844,-2.6507c0.6462,-0.7573 1.4288,-1.343 2.3477,-1.757c0.9189,-0.4241 1.9488,-0.6361 3.0898,-0.6361c1.1512,0 2.1862,0.212 3.1051,0.6361c0.929,0.414 1.7166,0.9997 2.3628,1.757c0.6564,0.7472 1.1562,1.6308 1.4995,2.6507c0.3433,1.0097 0.515,2.1053 0.515,3.2867l0,0.3484c0,1.1814 -0.1717,2.277 -0.515,3.2868c-0.3433,1.0097 -0.8431,1.8933 -1.4995,2.6506c-0.6462,0.7472 -1.4288,1.3329 -2.3477,1.757c-0.9088,0.414 -1.9387,0.621 -3.0899,0.621c-1.1511,0 -2.1861,-0.207 -3.105,-0.621c-0.9189,-0.4241 -1.7065,-1.0098 -2.3628,-1.757c-0.6463,-0.7573 -1.1411,-1.6409 -1.4844,-2.6506c-0.3433,-1.0098 -0.515,-2.1054 -0.515,-3.2868zm2.8021,-0.3484l0,0.3484c0,0.8179 0.096,1.5904 0.2878,2.3174c0.1919,0.7169 0.4797,1.3531 0.8634,1.9085c0.3938,0.5553 0.8835,0.9946 1.4692,1.3177c0.5856,0.313 1.2672,0.4695 2.0447,0.4695c0.7675,0 1.439,-0.1565 2.0145,-0.4695c0.5857,-0.3231 1.0704,-0.7624 1.4541,-1.3177c0.3837,-0.5554 0.6715,-1.1916 0.8633,-1.9085c0.202,-0.727 0.303,-1.4995 0.303,-2.3174l0,-0.3484c0,-0.8078 -0.101,-1.5702 -0.303,-2.2871c-0.1918,-0.727 -0.4847,-1.3682 -0.8785,-1.9236c-0.3837,-0.5654 -0.8684,-1.0097 -1.454,-1.3329c-0.5756,-0.3231 -1.2521,-0.4847 -2.0297,-0.4847c-0.7674,0 -1.4439,0.1616 -2.0296,0.4847c-0.5755,0.3232 -1.0602,0.7675 -1.454,1.3329c-0.3837,0.5554 -0.6715,1.1966 -0.8634,1.9236c-0.1918,0.7169 -0.2878,1.4793 -0.2878,2.2871zm14.889,0.3484l0,-0.3484c0,-1.1814 0.1717,-2.277 0.515,-3.2867c0.3433,-1.0199 0.8381,-1.9035 1.4843,-2.6507c0.6463,-0.7573 1.4288,-1.343 2.3477,-1.757c0.9189,-0.4241 1.9487,-0.6361 3.0897,-0.6361c1.151,0 2.186,0.212 3.105,0.6361c0.929,0.414 1.717,0.9997 2.363,1.757c0.656,0.7472 1.156,1.6308 1.5,2.6507c0.343,1.0097 0.515,2.1053 0.515,3.2867l0,0.3484c0,1.1814 -0.172,2.277 -0.515,3.2868c-0.344,1.0097 -0.844,1.8933 -1.5,2.6506c-0.646,0.7472 -1.429,1.3329 -2.348,1.757c-0.908,0.414 -1.938,0.621 -3.09,0.621c-1.151,0 -2.1856,-0.207 -3.1045,-0.621c-0.9189,-0.4241 -1.7065,-1.0098 -2.3629,-1.757c-0.6462,-0.7573 -1.141,-1.6409 -1.4843,-2.6506c-0.3433,-1.0098 -0.515,-2.1054 -0.515,-3.2868zm2.8021,-0.3484l0,0.3484c0,0.8179 0.0959,1.5904 0.2878,2.3174c0.1918,0.7169 0.4796,1.3531 0.8633,1.9085c0.3938,0.5553 0.8836,0.9946 1.4692,1.3177c0.5853,0.313 1.2673,0.4695 2.0443,0.4695c0.768,0 1.439,-0.1565 2.015,-0.4695c0.586,-0.3231 1.07,-0.7624 1.454,-1.3177c0.384,-0.5554 0.672,-1.1916 0.863,-1.9085c0.202,-0.727 0.303,-1.4995 0.303,-2.3174l0,-0.3484c0,-0.8078 -0.101,-1.5702 -0.303,-2.2871c-0.191,-0.727 -0.484,-1.3682 -0.878,-1.9236c-0.384,-0.5654 -0.869,-1.0097 -1.454,-1.3329c-0.576,-0.3231 -1.252,-0.4847 -2.03,-0.4847c-0.767,0 -1.444,0.1616 -2.0294,0.4847c-0.5756,0.3232 -1.0603,0.7675 -1.4541,1.3329c-0.3837,0.5554 -0.6715,1.1966 -0.8633,1.9236c-0.1919,0.7169 -0.2878,1.4793 -0.2878,2.2871zm18.4176,-4.7711l0,13.132l-2.817,0l0,-16.3885l2.666,0l0.151,3.2565zm-0.575,4.3167l-1.303,-0.0454c0.01,-1.1208 0.157,-2.1558 0.44,-3.105c0.282,-0.9593 0.701,-1.7924 1.257,-2.4992c0.555,-0.7068 1.247,-1.2521 2.075,-1.6358c0.828,-0.3938 1.787,-0.5907 2.878,-0.5907c0.767,0 1.474,0.1111 2.12,0.3332c0.646,0.2121 1.207,0.5503 1.681,1.0148c0.475,0.4645 0.843,1.0603 1.106,1.7873c0.263,0.727 0.394,1.6055 0.394,2.6355l0,10.9206l-2.802,0l0,-10.7843c0,-0.8583 -0.147,-1.5449 -0.439,-2.0599c-0.283,-0.515 -0.687,-0.8886 -1.212,-1.1209c-0.525,-0.2423 -1.141,-0.3635 -1.848,-0.3635c-0.828,0 -1.52,0.1464 -2.075,0.4393c-0.556,0.2928 -1,0.6967 -1.333,1.2117c-0.333,0.515 -0.576,1.1057 -0.727,1.7721c-0.141,0.6564 -0.212,1.3531 -0.212,2.0902zm10.618,-1.5449l-1.879,0.5756c0.01,-0.8987 0.157,-1.7621 0.44,-2.5901c0.292,-0.828 0.712,-1.5651 1.257,-2.2114c0.555,-0.6462 1.237,-1.1561 2.045,-1.5297c0.807,-0.3838 1.731,-0.5756 2.771,-0.5756c0.879,0 1.656,0.1161 2.333,0.3484c0.687,0.2322 1.262,0.5907 1.727,1.0754c0.474,0.4745 0.833,1.0854 1.075,1.8327c0.242,0.7472 0.364,1.6358 0.364,2.6657l0,10.7692l-2.818,0l0,-10.7994c0,-0.9189 -0.146,-1.6308 -0.439,-2.1357c-0.283,-0.515 -0.687,-0.8734 -1.212,-1.0754c-0.515,-0.212 -1.131,-0.3181 -1.848,-0.3181c-0.615,0 -1.161,0.1061 -1.635,0.3181c-0.475,0.2121 -0.874,0.5049 -1.197,0.8785c-0.323,0.3635 -0.57,0.7826 -0.742,1.2572c-0.162,0.4745 -0.242,0.9794 -0.242,1.5146zm21.174,10.6631c-1.141,0 -2.176,-0.1919 -3.105,-0.5756c-0.919,-0.3938 -1.711,-0.9441 -2.378,-1.6509c-0.656,-0.7069 -1.161,-1.545 -1.514,-2.5143c-0.354,-0.9694 -0.531,-2.0297 -0.531,-3.1808l0,-0.6361c0,-1.3329 0.197,-2.5194 0.591,-3.5595c0.394,-1.0501 0.929,-1.9387 1.606,-2.6657c0.676,-0.7271 1.444,-1.2774 2.302,-1.651c0.858,-0.3736 1.747,-0.5604 2.666,-0.5604c1.171,0 2.181,0.2019 3.029,0.6058c0.858,0.404 1.56,0.9694 2.105,1.6964c0.546,0.717 0.95,1.5652 1.212,2.5446c0.263,0.9694 0.394,2.0297 0.394,3.1808l0,1.2572l-12.238,0l0,-2.2872l9.436,0l0,-0.212c-0.041,-0.727 -0.192,-1.4339 -0.455,-2.1205c-0.252,-0.6866 -0.656,-1.2521 -1.211,-1.6964c-0.556,-0.4443 -1.313,-0.6665 -2.272,-0.6665c-0.636,0 -1.222,0.1364 -1.757,0.409c-0.535,0.2625 -0.995,0.6563 -1.379,1.1814c-0.383,0.5251 -0.681,1.1663 -0.893,1.9236c-0.212,0.7573 -0.318,1.6308 -0.318,2.6204l0,0.6361c0,0.7775 0.106,1.5096 0.318,2.1962c0.222,0.6766 0.54,1.2723 0.954,1.7873c0.424,0.515 0.934,0.9189 1.53,1.2117c0.606,0.2929 1.292,0.4393 2.06,0.4393c0.989,0 1.827,-0.202 2.514,-0.6059c0.687,-0.4039 1.288,-0.9441 1.802,-1.6206l1.697,1.348c-0.354,0.5352 -0.803,1.0451 -1.348,1.5298c-0.545,0.4847 -1.217,0.8785 -2.015,1.1814c-0.787,0.3029 -1.721,0.4544 -2.802,0.4544zm12.451,-14.1165l0,13.8136l-2.802,0l0,-16.3885l2.726,0l0.076,2.5749zm5.119,-2.6658l-0.015,2.6052c-0.232,-0.0505 -0.454,-0.0808 -0.666,-0.0909c-0.202,-0.0201 -0.435,-0.0302 -0.697,-0.0302c-0.646,0 -1.217,0.1009 -1.712,0.3029c-0.495,0.2019 -0.914,0.4847 -1.257,0.8482c-0.343,0.3635 -0.616,0.7977 -0.818,1.3026c-0.192,0.4948 -0.318,1.04 -0.378,1.6358l-0.788,0.4544c0,-0.9896 0.096,-1.9186 0.288,-2.787c0.202,-0.8684 0.51,-1.6358 0.924,-2.3022c0.414,-0.6766 0.939,-1.2016 1.575,-1.5752c0.646,-0.3838 1.414,-0.5756 2.302,-0.5756c0.202,0 0.434,0.0252 0.697,0.0757c0.262,0.0404 0.444,0.0858 0.545,0.1363zm11.648,13.6773l0,-8.4366c0,-0.6462 -0.132,-1.2067 -0.394,-1.6812c-0.252,-0.4847 -0.636,-0.8583 -1.151,-1.1209c-0.515,-0.2625 -1.151,-0.3938 -1.909,-0.3938c-0.706,0 -1.327,0.1212 -1.863,0.3635c-0.525,0.2424 -0.939,0.5604 -1.242,0.9542c-0.292,0.3939 -0.439,0.818 -0.439,1.2723l-2.802,0c0,-0.5856 0.151,-1.1662 0.454,-1.7418c0.303,-0.5756 0.738,-1.0956 1.303,-1.5601c0.576,-0.4746 1.262,-0.8482 2.06,-1.1208c0.808,-0.2827 1.706,-0.4241 2.696,-0.4241c1.192,0 2.242,0.2019 3.15,0.6058c0.919,0.404 1.636,1.0149 2.151,1.8328c0.525,0.8078 0.788,1.8226 0.788,3.0444l0,7.6338c0,0.5453 0.045,1.1259 0.136,1.7418c0.101,0.616 0.248,1.1461 0.439,1.5904l0,0.2424l-2.923,0c-0.141,-0.3232 -0.252,-0.7523 -0.333,-1.2875c-0.081,-0.5453 -0.121,-1.0501 -0.121,-1.5146zm0.484,-7.134l0.031,1.969l-2.833,0c-0.797,0 -1.509,0.0657 -2.135,0.1969c-0.626,0.1212 -1.151,0.308 -1.576,0.5605c-0.424,0.2524 -0.747,0.5705 -0.969,0.9542c-0.222,0.3736 -0.333,0.8128 -0.333,1.3177c0,0.515 0.116,0.9845 0.348,1.4086c0.232,0.4241 0.581,0.7624 1.045,1.0149c0.475,0.2423 1.056,0.3635 1.742,0.3635c0.858,0 1.616,-0.1818 2.272,-0.5453c0.657,-0.3635 1.177,-0.8078 1.56,-1.3329c0.394,-0.5251 0.606,-1.035 0.636,-1.5298l1.197,1.3481c-0.071,0.4241 -0.263,0.8936 -0.576,1.4086c-0.313,0.515 -0.732,1.0097 -1.257,1.4843c-0.515,0.4645 -1.131,0.8533 -1.848,1.1663c-0.706,0.3029 -1.504,0.4544 -2.393,0.4544c-1.11,0 -2.085,-0.2171 -2.923,-0.6513c-0.828,-0.4342 -1.474,-1.0148 -1.939,-1.7418c-0.454,-0.7372 -0.681,-1.5601 -0.681,-2.4689c0,-0.8785 0.171,-1.651 0.515,-2.3174c0.343,-0.6766 0.838,-1.237 1.484,-1.6813c0.646,-0.4544 1.424,-0.7977 2.333,-1.0299c0.908,-0.2323 1.923,-0.3484 3.044,-0.3484l3.256,0zm9.528,-2.9536l0,12.8897l-2.803,0l0,-16.3885l2.651,0l0.152,3.4988zm-0.667,4.0744l-1.166,-0.0454c0.01,-1.1208 0.177,-2.1558 0.5,-3.105c0.323,-0.9593 0.777,-1.7924 1.363,-2.4992c0.586,-0.7068 1.282,-1.2521 2.09,-1.6358c0.818,-0.3938 1.722,-0.5907 2.711,-0.5907c0.808,0 1.535,0.1111 2.181,0.3332c0.647,0.2121 1.197,0.5554 1.651,1.03c0.465,0.4746 0.818,1.0905 1.061,1.8478c0.242,0.7473 0.363,1.6611 0.363,2.7415l0,10.7389l-2.817,0l0,-10.7692c0,-0.8583 -0.126,-1.5449 -0.379,-2.0599c-0.252,-0.525 -0.621,-0.9037 -1.105,-1.136c-0.485,-0.2423 -1.081,-0.3635 -1.788,-0.3635c-0.697,0 -1.333,0.1464 -1.908,0.4393c-0.566,0.2928 -1.055,0.6967 -1.469,1.2117c-0.404,0.515 -0.722,1.1057 -0.955,1.7721c-0.222,0.6564 -0.333,1.3531 -0.333,2.0902zm25.628,-7.5732l2.544,0l0,16.0401c0,1.444 -0.292,2.6759 -0.878,3.6957c-0.586,1.0199 -1.404,1.7924 -2.454,2.3174c-1.04,0.5352 -2.241,0.8028 -3.605,0.8028c-0.565,0 -1.231,-0.0909 -1.999,-0.2726c-0.757,-0.1717 -1.504,-0.4696 -2.242,-0.8937c-0.727,-0.414 -1.338,-0.9744 -1.832,-1.6812l1.469,-1.6661c0.687,0.828 1.403,1.4035 2.151,1.7267c0.757,0.3231 1.504,0.4846 2.241,0.4846c0.889,0 1.656,-0.1666 2.303,-0.4998c0.646,-0.3332 1.146,-0.828 1.499,-1.4843c0.364,-0.6463 0.545,-1.444 0.545,-2.3932l0,-12.5715l0.258,-3.6049zm-11.284,8.376l0,-0.3181c0,-1.2521 0.146,-2.3881 0.439,-3.4079c0.303,-1.03 0.732,-1.9135 1.287,-2.6507c0.566,-0.7371 1.248,-1.3025 2.045,-1.6964c0.798,-0.4039 1.697,-0.6058 2.696,-0.6058c1.03,0 1.929,0.1817 2.696,0.5453c0.778,0.3534 1.434,0.8734 1.969,1.56c0.546,0.6766 0.975,1.4945 1.288,2.4538c0.313,0.9592 0.53,2.0447 0.651,3.2565l0,1.3934c-0.111,1.2016 -0.328,2.2821 -0.651,3.2414c-0.313,0.9592 -0.742,1.7771 -1.288,2.4537c-0.535,0.6765 -1.191,1.1966 -1.969,1.5601c-0.777,0.3534 -1.686,0.5301 -2.726,0.5301c-0.979,0 -1.868,-0.207 -2.666,-0.621c-0.787,-0.414 -1.464,-0.9946 -2.029,-1.7418c-0.566,-0.7473 -1,-1.6258 -1.303,-2.6355c-0.293,-1.0199 -0.439,-2.1256 -0.439,-3.3171zm2.802,-0.3181l0,0.3181c0,0.8179 0.081,1.5853 0.242,2.3023c0.172,0.7169 0.429,1.348 0.773,1.8933c0.353,0.5452 0.802,0.9744 1.348,1.2874c0.545,0.3029 1.196,0.4544 1.954,0.4544c0.929,0 1.696,-0.1969 2.302,-0.5907c0.606,-0.3938 1.085,-0.9138 1.439,-1.5601c0.363,-0.6462 0.646,-1.348 0.848,-2.1053l0,-3.6503c-0.111,-0.5554 -0.283,-1.0906 -0.515,-1.6056c-0.222,-0.525 -0.515,-0.9895 -0.878,-1.3934c-0.354,-0.414 -0.793,-0.7422 -1.318,-0.9846c-0.525,-0.2423 -1.141,-0.3635 -1.848,-0.3635c-0.768,0 -1.429,0.1616 -1.984,0.4847c-0.546,0.313 -0.995,0.7472 -1.348,1.3026c-0.344,0.5453 -0.601,1.1814 -0.773,1.9085c-0.161,0.7169 -0.242,1.4843 -0.242,2.3022z"/>
  <path id="svg_2" fill="#999999" d="m18.1831,18.3166c7.8058,-4.9039 18.3373,-1.2718 13.9335,7.3099c-4.4038,8.5766 -44.6687,-7.3201 -28.1671,0.58c16.5016,7.9 22.8632,23.9901 29.6164,8.7801c6.7532,-15.2101 14.8896,-48.1227 -7.994,-28.12075c-22.88353,20.00195 -17.13213,17.56525 -7.3888,11.45075z"/>
 </g>
</svg>